<svg width="14" height="14" viewBox="0 0 14 14" fill="none" xmlns="http://www.w3.org/2000/svg">
<path d="M12.5781 13.375C11.1378 13.375 9.70642 13.0208 8.28385 12.3125C6.86128 11.6042 5.58333 10.6833 4.45 9.55C3.31667 8.41667 2.39583 7.13872 1.6875 5.71615C0.979167 4.29358 0.625 2.86215 0.625 1.42188C0.625 1.19757 0.701736 1.00868 0.855208 0.855208C1.00868 0.701736 1.19757 0.625 1.42188 0.625H3.90104C4.06632 0.625 4.21094 0.681076 4.3349 0.793229C4.45885 0.905382 4.53854 1.0559 4.57396 1.24479L5.05208 3.47604C5.07569 3.64132 5.07274 3.79184 5.04323 3.9276C5.01372 4.06337 4.95174 4.17847 4.85729 4.27292L3.08646 6.06146C3.74757 7.15937 4.48837 8.11562 5.30885 8.93021C6.12934 9.74479 7.05903 10.4354 8.09792 11.0021L9.78021 9.26667C9.89826 9.13681 10.034 9.04531 10.1875 8.99219C10.341 8.93906 10.4944 8.93021 10.6479 8.96562L12.7552 9.42604C12.9323 9.46146 13.0799 9.55 13.1979 9.69167C13.316 9.83333 13.375 9.99861 13.375 10.1875V12.5781C13.375 12.8024 13.2983 12.9913 13.1448 13.1448C12.9913 13.2983 12.8024 13.375 12.5781 13.375ZM2.55521 5.0875L3.98958 3.63542L3.58229 1.6875H1.6875C1.6875 2.14792 1.75833 2.6526 1.9 3.20156C2.04167 3.75052 2.26007 4.37917 2.55521 5.0875ZM12.3125 12.3125V10.4177L10.4885 10.0458L9.08958 11.5156C9.57361 11.7399 10.099 11.9229 10.6656 12.0646C11.2323 12.2062 11.7812 12.2889 12.3125 12.3125Z" fill="#23262F"/>
</svg>
