<svg width="56" height="56" viewBox="0 0 56 56" fill="none" xmlns="http://www.w3.org/2000/svg">
<path d="M18.9007 30.8002C18.9007 29.6404 17.9605 28.7002 16.8007 28.7002C15.6409 28.7002 14.7007 29.6404 14.7007 30.8002V42.0002C14.7007 43.16 15.6409 44.1002 16.8007 44.1002C17.9605 44.1002 18.9007 43.16 18.9007 42.0002V30.8002Z" fill="white"/>
<path d="M39.2007 28.7002C40.3605 28.7002 41.3007 29.6404 41.3007 30.8002V42.0002C41.3007 43.16 40.3605 44.1002 39.2007 44.1002C38.0409 44.1002 37.1007 43.16 37.1007 42.0002V30.8002C37.1007 29.6404 38.0409 28.7002 39.2007 28.7002Z" fill="white"/>
<path d="M30.1007 30.8002C30.1007 29.6404 29.1605 28.7002 28.0007 28.7002C26.8409 28.7002 25.9007 29.6404 25.9007 30.8002V42.0002C25.9007 43.16 26.8409 44.1002 28.0007 44.1002C29.1605 44.1002 30.1007 43.16 30.1007 42.0002V30.8002Z" fill="white"/>
<path fill-rule="evenodd" clip-rule="evenodd" d="M42.7673 4.12454C41.4358 3.60412 39.9441 3.51627 38.0302 3.50235C37.2442 1.84573 35.5562 0.700195 33.6007 0.700195H22.4007C20.4452 0.700195 18.7572 1.84573 17.9712 3.50235C16.0573 3.51627 14.5656 3.60412 13.2341 4.12454C11.6432 4.74632 10.2594 5.80333 9.24096 7.17465C8.21356 8.55808 7.73127 10.3313 7.06745 12.7719L5.30941 19.2201C4.2244 19.7757 3.27497 20.524 2.48295 21.5384C0.741365 23.7689 0.432936 26.4257 0.742756 29.4732C1.04339 32.4304 1.97438 36.1542 3.13979 40.8156L3.21371 41.1112C3.9506 44.059 4.5489 46.4524 5.2605 48.3202C6.00241 50.2677 6.94434 51.8639 8.49728 53.0764C10.0502 54.2889 11.8272 54.8155 13.8964 55.063C15.8811 55.3003 18.3482 55.3002 21.3867 55.3002H34.6145C37.653 55.3002 40.12 55.3003 42.1047 55.063C44.174 54.8155 45.9509 54.2889 47.5039 53.0764C49.0568 51.8639 49.9988 50.2677 50.7407 48.3202C51.4523 46.4524 52.0506 44.059 52.7875 41.1112L52.8613 40.8157C54.0268 36.1543 54.9578 32.4304 55.2584 29.4732C55.5682 26.4257 55.2598 23.7689 53.5182 21.5384C52.7263 20.524 51.7769 19.7759 50.692 19.2203L48.934 12.7719C48.2701 10.3313 47.7879 8.55808 46.7605 7.17465C45.742 5.80333 44.3583 4.74632 42.7673 4.12454ZM14.763 8.03638C15.3784 7.79584 16.122 7.72507 17.9752 7.70633C18.7628 9.35849 20.4484 10.5002 22.4007 10.5002H33.6007C35.553 10.5002 37.2386 9.35849 38.0262 7.70633C39.8794 7.72507 40.623 7.79584 41.2384 8.03638C42.0951 8.37119 42.8402 8.94034 43.3886 9.67875C43.8817 10.3427 44.171 11.2704 44.9856 14.2576L45.9756 17.8885C43.0697 17.5001 39.3183 17.5001 34.6573 17.5002H21.3439C16.683 17.5001 12.9316 17.5001 10.0258 17.8885L11.0158 14.2576C11.8304 11.2704 12.1197 10.3427 12.6128 9.67875C13.1612 8.94034 13.9063 8.37119 14.763 8.03638ZM22.4007 4.9002C22.0141 4.9002 21.7007 5.2136 21.7007 5.6002C21.7007 5.98679 22.0141 6.3002 22.4007 6.3002H33.6007C33.9873 6.3002 34.3007 5.98679 34.3007 5.6002C34.3007 5.2136 33.9873 4.9002 33.6007 4.9002H22.4007ZM5.79341 24.1231C6.57416 23.1231 7.80888 22.4514 10.3602 22.0824C12.9659 21.7054 16.4991 21.7002 21.5176 21.7002H34.4835C39.5021 21.7002 43.0352 21.7054 45.641 22.0824C48.1923 22.4514 49.427 23.1231 50.2078 24.1231C50.9885 25.1231 51.3407 26.4838 51.0799 29.0484C50.8137 31.6678 49.9618 35.0967 48.7446 39.9655C47.9683 43.0708 47.4276 45.2191 46.8158 46.825C46.2242 48.3781 45.6448 49.1993 44.9192 49.7659C44.1935 50.3325 43.2563 50.6953 41.6061 50.8927C39.8998 51.0967 37.6845 51.1002 34.4835 51.1002H21.5176C18.3167 51.1002 16.1014 51.0967 14.3951 50.8927C12.7449 50.6953 11.8077 50.3325 11.082 49.7659C10.3564 49.1993 9.77701 48.3781 9.18533 46.825C8.57355 45.2191 8.03287 43.0708 7.25653 39.9655C6.03935 35.0967 5.18751 31.6678 4.92122 29.0484C4.66049 26.4838 5.01266 25.1231 5.79341 24.1231Z" fill="white"/>
</svg>
