<svg width="36" height="36" viewBox="0 0 36 36" fill="none" xmlns="http://www.w3.org/2000/svg">
<path d="M7.80078 16.7998V20.3998C7.80078 24.9253 7.80078 27.188 9.20667 28.5939C10.6126 29.9998 12.8753 29.9998 17.4008 29.9998H18.6008C23.1263 29.9998 25.389 29.9998 26.7949 28.5939C28.2008 27.188 28.2008 24.9253 28.2008 20.3998V16.7998" stroke="#83C25F" stroke-width="1.8"/>
<path d="M15.0005 6H21.0005L21.7826 13.8208C22.0064 16.0584 20.2493 18 18.0005 18C15.7518 18 13.9947 16.0584 14.2185 13.8208L15.0005 6Z" stroke="#83C25F" stroke-width="1.8"/>
<path d="M7.59473 10.0216C7.80842 8.95312 7.91527 8.41888 8.13252 7.98581C8.59028 7.07327 9.41397 6.39801 10.3986 6.1281C10.8658 6 11.4106 6 12.5003 6H14.999L14.1296 14.6943C13.942 16.5709 12.3628 18 10.4769 18C8.16034 18 6.42291 15.8807 6.87722 13.6091L7.59473 10.0216Z" stroke="#83C25F" stroke-width="1.8"/>
<path d="M28.4043 10.0216C28.1906 8.95312 28.0838 8.41888 27.8665 7.98581C27.4088 7.07327 26.5851 6.39801 25.6005 6.1281C25.1332 6 24.5884 6 23.4988 6H21L21.8694 14.6943C22.0571 16.5709 23.6362 18 25.5222 18C27.8387 18 29.5761 15.8807 29.1218 13.6091L28.4043 10.0216Z" stroke="#83C25F" stroke-width="1.8"/>
<path d="M15 29.4V25.8C15 24.6785 15 24.1177 15.2412 23.7C15.3991 23.4264 15.6264 23.1992 15.9 23.0412C16.3177 22.8 16.8785 22.8 18 22.8C19.1215 22.8 19.6823 22.8 20.1 23.0412C20.3736 23.1992 20.6009 23.4264 20.7588 23.7C21 24.1177 21 24.6785 21 25.8V29.4" stroke="#83C25F" stroke-width="1.8" stroke-linecap="round"/>
</svg>
