<svg width="36" height="36" viewBox="0 0 36 36" fill="none" xmlns="http://www.w3.org/2000/svg">
<path d="M10.8008 15.6001H15.6008" stroke="#83C25F" stroke-width="1.8" stroke-linecap="round" stroke-linejoin="round"/>
<path d="M28.6016 16.7998H25.4785C23.3373 16.7998 21.6016 18.4116 21.6016 20.3998C21.6016 22.388 23.3373 23.9998 25.4785 23.9998H28.6016C28.7016 23.9998 28.7516 23.9998 28.7938 23.9972C29.4409 23.9578 29.9564 23.4792 29.9988 22.8783C30.0016 22.8391 30.0016 22.7927 30.0016 22.6998V18.0998C30.0016 18.0069 30.0016 17.9605 29.9988 17.9213C29.9564 17.3204 29.4409 16.8418 28.7938 16.8024C28.7516 16.7998 28.7016 16.7998 28.6016 16.7998Z" stroke="#83C25F" stroke-width="1.8"/>
<circle cx="25.2" cy="20.4" r="1.2" fill="#83C25F"/>
<path d="M27.3941 28.5942L28.0305 29.2306V29.2306L27.3941 28.5942ZM27.3941 12.2059L28.0305 11.5695V11.5695L27.3941 12.2059ZM7.40589 12.2059L6.76949 11.5695L7.40589 12.2059ZM7.40589 28.5942L8.04228 27.9578L7.40589 28.5942ZM15.6 11.7H19.2V9.90005H15.6V11.7ZM19.2 29.1H15.6V30.9H19.2V29.1ZM19.2 30.9C21.4373 30.9 23.2058 30.902 24.5868 30.7163C25.9937 30.5271 27.1325 30.1286 28.0305 29.2306L26.7577 27.9578C26.2499 28.4656 25.5543 28.77 24.347 28.9323C23.1138 29.0981 21.4882 29.1 19.2 29.1V30.9ZM19.2 11.7C21.4882 11.7 23.1138 11.702 24.347 11.8678C25.5543 12.0301 26.2499 12.3345 26.7577 12.8423L28.0305 11.5695C27.1325 10.6715 25.9937 10.273 24.5868 10.0838C23.2058 9.89814 21.4373 9.90005 19.2 9.90005V11.7ZM6.9 20.4001C6.9 18.1119 6.90191 16.4863 7.06771 15.2531C7.23003 14.0458 7.53443 13.3502 8.04228 12.8423L6.76949 11.5695C5.87146 12.4676 5.47291 13.6063 5.28376 15.0132C5.09809 16.3942 5.1 18.1628 5.1 20.4001H6.9ZM15.6 9.90005C13.3627 9.90005 11.5942 9.89814 10.2132 10.0838C8.80627 10.273 7.66753 10.6715 6.76949 11.5695L8.04228 12.8423C8.55013 12.3345 9.24571 12.0301 10.453 11.8678C11.6862 11.702 13.3118 11.7 15.6 11.7V9.90005ZM5.1 20.4001C5.1 22.6373 5.09809 24.4059 5.28376 25.7869C5.47292 27.1938 5.87146 28.3325 6.76949 29.2306L8.04228 27.9578C7.53443 27.4499 7.23003 26.7543 7.06771 25.547C6.90191 24.3138 6.9 22.6882 6.9 20.4001H5.1ZM15.6 29.1C13.3118 29.1 11.6862 29.0981 10.453 28.9323C9.24571 28.77 8.55014 28.4656 8.04228 27.9578L6.76949 29.2306C7.66753 30.1286 8.80627 30.5271 10.2132 30.7163C11.5942 30.902 13.3627 30.9 15.6 30.9V29.1ZM29.6573 16.7627C29.5635 14.505 29.2651 12.8042 28.0305 11.5695L26.7577 12.8423C27.4627 13.5473 27.766 14.6016 27.8588 16.8374L29.6573 16.7627ZM27.8588 23.9627C27.766 26.1985 27.4627 27.2528 26.7577 27.9578L28.0305 29.2306C29.2651 27.9959 29.5635 26.2951 29.6573 24.0374L27.8588 23.9627Z" fill="#83C25F"/>
<path d="M10.3034 10.0501C9.88916 10.3248 9.77601 10.8833 10.0507 11.2976C10.3254 11.7118 10.8839 11.825 11.2981 11.5503L10.3034 10.0501ZM15.2834 7.82796L14.786 7.07787V7.07787L15.2834 7.82796ZM19.5182 7.82796L19.0208 8.57805V8.57805L19.5182 7.82796ZM23.5034 11.5503C23.9177 11.825 24.4762 11.7118 24.7509 11.2976C25.0256 10.8833 24.9124 10.3248 24.4981 10.0501L23.5034 11.5503ZM11.2981 11.5503L15.7807 8.57805L14.786 7.07787L10.3034 10.0501L11.2981 11.5503ZM19.0208 8.57805L23.5034 11.5503L24.4981 10.0501L20.0156 7.07787L19.0208 8.57805ZM15.7807 8.57805C16.7416 7.94091 18.0599 7.94091 19.0208 8.57805L20.0156 7.07787C18.4518 6.04097 16.3498 6.04097 14.786 7.07787L15.7807 8.57805Z" fill="#83C25F"/>
</svg>
