<svg width="36" height="36" viewBox="0 0 36 36" fill="none" xmlns="http://www.w3.org/2000/svg">
<circle cx="18" cy="18" r="12" stroke="#83C25F" stroke-width="1.8"/>
<path d="M18 24V24.6V25.2" stroke="#83C25F" stroke-width="1.8" stroke-linecap="round"/>
<path d="M18 10.8V11.4V12" stroke="#83C25F" stroke-width="1.8" stroke-linecap="round"/>
<path d="M20.6984 15C20.6984 15.4971 21.1014 15.9 21.5984 15.9C22.0955 15.9 22.4984 15.4971 22.4984 15H20.6984ZM15.2984 21C15.2984 20.5029 14.8955 20.1 14.3984 20.1C13.9014 20.1 13.4984 20.5029 13.4984 21H15.2984ZM17.9984 17.1C16.3467 17.1 15.2984 16.0131 15.2984 15H13.4984C13.4984 17.3006 15.6738 18.9 17.9984 18.9V17.1ZM15.2984 15C15.2984 13.9869 16.3467 12.9 17.9984 12.9V11.1C15.6738 11.1 13.4984 12.6994 13.4984 15H15.2984ZM17.9984 12.9C19.6502 12.9 20.6984 13.9869 20.6984 15H22.4984C22.4984 12.6994 20.3231 11.1 17.9984 11.1V12.9ZM17.9984 18.9C19.6502 18.9 20.6984 19.9869 20.6984 21H22.4984C22.4984 18.6994 20.3231 17.1 17.9984 17.1V18.9ZM20.6984 21C20.6984 22.0131 19.6502 23.1 17.9984 23.1V24.9C20.3231 24.9 22.4984 23.3006 22.4984 21H20.6984ZM17.9984 23.1C16.3467 23.1 15.2984 22.0131 15.2984 21H13.4984C13.4984 23.3006 15.6738 24.9 17.9984 24.9V23.1Z" fill="#83C25F"/>
</svg>
