<svg width="21" height="21" viewBox="0 0 21 21" fill="none" xmlns="http://www.w3.org/2000/svg">
<path d="M5.5 2.5957V12.5957" stroke="#23262F" stroke-opacity="0.6" stroke-width="2" stroke-linecap="round" stroke-linejoin="round"/>
<path d="M15.5 7.5957C16.8807 7.5957 18 6.47641 18 5.0957C18 3.71499 16.8807 2.5957 15.5 2.5957C14.1193 2.5957 13 3.71499 13 5.0957C13 6.47641 14.1193 7.5957 15.5 7.5957Z" stroke="#23262F" stroke-opacity="0.6" stroke-width="2" stroke-linecap="round" stroke-linejoin="round"/>
<path d="M5.5 17.5957C6.88071 17.5957 8 16.4764 8 15.0957C8 13.715 6.88071 12.5957 5.5 12.5957C4.11929 12.5957 3 13.715 3 15.0957C3 16.4764 4.11929 17.5957 5.5 17.5957Z" stroke="#23262F" stroke-opacity="0.6" stroke-width="2" stroke-linecap="round" stroke-linejoin="round"/>
<path d="M15.5 7.5957C15.5 9.58483 14.7098 11.4925 13.3033 12.899C11.8968 14.3055 9.98912 15.0957 8 15.0957" stroke="#23262F" stroke-opacity="0.6" stroke-width="2" stroke-linecap="round" stroke-linejoin="round"/>
</svg>
