<svg width="50" height="61" viewBox="0 0 50 61" fill="none" xmlns="http://www.w3.org/2000/svg">
<path fill-rule="evenodd" clip-rule="evenodd" d="M20.0146 1.3591C21.5955 0.620183 23.2973 0.25 25 0.25C26.7027 0.25 28.4045 0.620183 29.9854 1.3591C36.0758 4.20578 40.9443 9.53727 44.2764 15.6728C47.6127 21.8159 49.5 28.9265 49.5 35.5488C49.5 49.266 38.566 60.45 25 60.45C11.434 60.45 0.5 49.266 0.5 35.5488C0.5 28.9265 2.38728 21.8159 5.72356 15.6728C9.05573 9.53727 13.9242 4.20578 20.0146 1.3591ZM22.9 4.74786C22.5239 4.85669 22.1538 4.99538 21.793 5.16399C16.7289 7.53102 12.4455 12.0961 9.41437 17.6772C6.38737 23.2508 4.7 29.677 4.7 35.5488C4.7 46.2897 12.703 55.0698 22.9 56.1404V4.74786ZM27.1 4.74786V16.8801L34.4583 9.52185C32.5566 7.70386 30.459 6.21659 28.207 5.16399C27.8462 4.99538 27.4761 4.85669 27.1 4.74786ZM37.2815 12.6384L27.1 22.8198V32.2802L40.9723 18.4079C40.8459 18.1628 40.717 17.9192 40.5856 17.6772C39.609 15.879 38.5023 14.1862 37.2815 12.6384ZM42.8016 22.5182L27.1 38.2198V46.2802L44.515 28.8652L44.649 28.9992C44.2273 26.823 43.6062 24.6413 42.8016 22.5182ZM45.2644 34.0555L27.1 52.2198V56.1404C37.297 55.0698 45.3 46.2897 45.3 35.5488C45.3 35.0547 45.2881 34.5566 45.2644 34.0555Z" fill="white"/>
</svg>
