<svg width="21" height="21" viewBox="0 0 21 21" fill="none" xmlns="http://www.w3.org/2000/svg">
<path d="M13.8333 6.7627C15.1593 6.7627 16.4311 7.28948 17.3688 8.22716C18.3065 9.16484 18.8333 10.4366 18.8333 11.7627V17.596H15.4999V11.7627C15.4999 11.3207 15.3243 10.8967 15.0118 10.5842C14.6992 10.2716 14.2753 10.096 13.8333 10.096C13.3912 10.096 12.9673 10.2716 12.6547 10.5842C12.3422 10.8967 12.1666 11.3207 12.1666 11.7627V17.596H8.83325V11.7627C8.83325 10.4366 9.36004 9.16484 10.2977 8.22716C11.2354 7.28948 12.5072 6.7627 13.8333 6.7627Z" fill="#23262F" fill-opacity="0.6"/>
<path d="M5.50008 7.5957H2.16675V17.5957H5.50008V7.5957Z" fill="#23262F" fill-opacity="0.6"/>
<path d="M3.83341 5.09603C4.75389 5.09603 5.50008 4.34984 5.50008 3.42936C5.50008 2.50889 4.75389 1.7627 3.83341 1.7627C2.91294 1.7627 2.16675 2.50889 2.16675 3.42936C2.16675 4.34984 2.91294 5.09603 3.83341 5.09603Z" fill="#23262F" fill-opacity="0.6"/>
</svg>
