<svg width="19" height="15" viewBox="0 0 19 15" fill="none" xmlns="http://www.w3.org/2000/svg">
<path d="M1.71094 14.8337C1.34427 14.8337 1.02344 14.6962 0.748438 14.4212C0.473438 14.1462 0.335938 13.8253 0.335938 13.4587V1.54199C0.335938 1.17533 0.473438 0.854492 0.748438 0.579492C1.02344 0.304492 1.34427 0.166992 1.71094 0.166992H17.2943C17.6609 0.166992 17.9818 0.304492 18.2568 0.579492C18.5318 0.854492 18.6693 1.17533 18.6693 1.54199V13.4587C18.6693 13.8253 18.5318 14.1462 18.2568 14.4212C17.9818 14.6962 17.6609 14.8337 17.2943 14.8337H1.71094ZM9.5026 7.91283L1.71094 2.80241V13.4587H17.2943V2.80241L9.5026 7.91283ZM9.5026 6.53783L17.2026 1.54199H1.82552L9.5026 6.53783ZM1.71094 2.80241V1.54199V13.4587V2.80241Z" fill="#23262F" fill-opacity="0.6"/>
</svg>
