<svg width="1241" height="503" viewBox="0 0 1241 503" fill="none" xmlns="http://www.w3.org/2000/svg">
<path fill-rule="evenodd" clip-rule="evenodd" d="M1466.57 87.7988C1431.12 177.218 1307.91 227.424 1219.29 296.367C1128.39 367.095 1086.53 514.154 941.526 496.291C774.397 475.701 797.798 261.285 635.18 224.408C428.388 177.513 178.05 397.646 27.3176 288.974C-107.638 191.677 184.7 75.4711 288.336 -25.6517C340.003 -76.0653 422.402 -102.841 478.323 -151.095C540.673 -204.896 555.786 -277.347 632.157 -322.329C769.349 -403.136 899.493 -534.753 1089.45 -511.054C1268.51 -488.716 1353.82 -336.925 1425.32 -223.376C1488.73 -122.682 1506.39 -12.6752 1466.57 87.7988Z" stroke="white" stroke-opacity="0.15" stroke-width="2"/>
<path fill-rule="evenodd" clip-rule="evenodd" d="M1460.2 153.916C1424.75 243.336 1301.54 293.541 1212.93 362.484C1122.02 433.212 1080.16 580.272 935.159 562.408C768.03 541.819 791.431 327.402 628.813 290.525C422.021 243.63 171.683 463.763 20.9504 355.091C-114.005 257.794 178.333 141.588 281.969 40.4654C333.636 -9.9481 416.035 -36.7241 471.956 -84.9776C534.306 -138.779 549.419 -211.229 625.79 -256.212C762.982 -337.019 893.126 -468.635 1083.09 -444.937C1262.14 -422.598 1347.45 -270.808 1418.95 -157.259C1482.36 -56.5648 1500.03 53.4419 1460.2 153.916Z" stroke="white" stroke-opacity="0.15" stroke-width="2"/>
<path fill-rule="evenodd" clip-rule="evenodd" d="M1464.98 104.328C1429.53 193.748 1306.32 243.954 1217.7 312.896C1126.8 383.624 1084.94 530.684 939.936 512.82C772.807 492.231 796.208 277.814 633.59 240.937C426.798 194.043 176.46 414.175 25.7278 305.503C-109.228 208.206 183.111 92.0004 286.747 -9.12245C338.413 -59.536 420.812 -86.312 476.733 -134.566C539.084 -188.367 554.196 -260.817 630.567 -305.8C767.759 -386.607 897.904 -518.223 1087.86 -494.524C1266.92 -472.186 1352.23 -320.396 1423.73 -206.847C1487.14 -106.153 1504.8 3.85405 1464.98 104.328Z" stroke="white" stroke-opacity="0.15" stroke-width="2"/>
<path fill-rule="evenodd" clip-rule="evenodd" d="M1458.61 170.445C1423.16 259.865 1299.95 310.071 1211.34 379.014C1120.43 449.741 1078.57 596.801 933.569 578.937C766.44 558.348 789.841 343.932 627.223 307.054C420.431 260.16 170.093 480.292 19.3606 371.62C-115.595 274.323 176.743 158.118 280.379 56.9947C332.046 6.5812 414.445 -20.1948 470.366 -68.4484C532.716 -122.25 547.829 -194.7 624.2 -239.683C761.392 -320.49 891.536 -452.106 1081.5 -428.407C1260.55 -406.069 1345.86 -254.279 1417.36 -140.729C1480.77 -40.0355 1498.44 69.9712 1458.61 170.445Z" stroke="white" stroke-opacity="0.15" stroke-width="2"/>
<path fill-rule="evenodd" clip-rule="evenodd" d="M1463.39 120.857C1427.94 210.277 1304.73 260.482 1216.11 329.425C1125.21 400.153 1083.35 547.213 938.346 529.349C771.218 508.759 794.619 294.343 632.001 257.466C425.208 210.571 174.87 430.704 24.1379 322.032C-110.818 224.735 181.521 108.529 285.157 7.40636C336.823 -43.0072 419.222 -69.7832 475.143 -118.037C537.494 -171.838 552.607 -244.288 628.977 -289.271C766.169 -370.078 896.314 -501.694 1086.27 -477.996C1265.33 -455.657 1350.64 -303.867 1422.14 -190.318C1485.55 -89.6239 1503.21 20.3829 1463.39 120.857Z" stroke="white" stroke-opacity="0.15" stroke-width="2"/>
<path fill-rule="evenodd" clip-rule="evenodd" d="M1461.79 137.386C1426.35 226.806 1303.13 277.012 1214.52 345.955C1123.61 416.682 1081.76 563.742 936.752 545.878C769.624 525.289 793.025 310.873 630.407 273.995C423.614 227.101 173.276 447.233 22.5442 338.561C-112.412 241.264 179.927 125.059 283.563 23.9357C335.229 -26.4779 417.628 -53.2539 473.55 -101.507C535.9 -155.309 551.013 -227.759 627.383 -272.742C764.576 -353.549 894.72 -485.165 1084.68 -461.466C1263.73 -439.128 1349.04 -287.338 1420.55 -173.789C1483.96 -73.0946 1501.62 36.9122 1461.79 137.386Z" stroke="white" stroke-opacity="0.15" stroke-width="2"/>
<path fill-rule="evenodd" clip-rule="evenodd" d="M1466.78 63.293C1431.33 152.713 1308.12 202.918 1219.5 271.861C1128.6 342.589 1086.74 489.649 941.737 471.785C774.608 451.195 798.009 236.779 635.391 199.902C428.599 153.007 178.261 373.14 27.5285 264.468C-107.427 167.171 184.911 50.9653 288.547 -50.1576C340.214 -100.571 422.613 -127.347 478.534 -175.601C540.884 -229.402 555.997 -301.852 632.368 -346.835C769.56 -427.642 899.704 -559.258 1089.66 -535.56C1268.72 -513.221 1354.03 -361.431 1425.53 -247.882C1488.94 -147.188 1506.6 -37.1811 1466.78 63.293Z" stroke="white" stroke-opacity="0.15" stroke-width="2"/>
<path fill-rule="evenodd" clip-rule="evenodd" d="M1461.49 44.5532C1426.05 133.973 1302.83 184.179 1214.22 253.122C1123.31 323.849 1081.46 470.909 936.452 453.045C769.323 432.456 792.724 218.04 630.106 181.162C423.314 134.268 172.976 354.4 22.2434 245.728C-112.712 148.431 179.626 32.2255 283.262 -68.8974C334.929 -119.311 417.328 -146.087 473.249 -194.34C535.599 -248.142 550.712 -320.592 627.083 -365.575C764.275 -446.382 894.419 -577.998 1084.38 -554.299C1263.43 -531.961 1348.74 -380.171 1420.25 -266.622C1483.66 -165.928 1501.32 -55.9209 1461.49 44.5532Z" stroke="white" stroke-opacity="0.15" stroke-width="2"/>
<path fill-rule="evenodd" clip-rule="evenodd" d="M1533.09 -77.0142C1497.64 12.4054 1374.43 62.6113 1285.81 131.554C1194.91 202.282 1153.05 349.341 1008.05 331.478C840.917 310.888 864.318 96.4721 701.7 59.595C494.907 12.7003 244.569 232.833 93.8371 124.161C-41.1186 26.8636 251.22 -89.3418 354.856 -190.465C406.522 -240.878 488.921 -267.654 544.843 -315.908C607.193 -369.709 622.306 -442.16 698.676 -487.142C835.869 -567.949 966.013 -699.566 1155.97 -675.867C1335.03 -653.528 1420.34 -501.738 1491.84 -388.189C1555.25 -287.495 1572.91 -177.488 1533.09 -77.0142Z" stroke="white" stroke-opacity="0.15" stroke-width="2"/>
<path fill-rule="evenodd" clip-rule="evenodd" d="M1447.08 -145.727C1411.63 -56.307 1288.42 -6.10109 1199.8 62.8417C1108.9 133.57 1067.04 280.629 922.037 262.765C754.909 242.176 778.31 27.7597 615.692 -9.11742C408.899 -56.0121 158.562 164.12 7.82932 55.4485C-127.126 -41.8488 165.212 -158.054 268.848 -259.177C320.515 -309.591 402.913 -336.367 458.835 -384.62C521.185 -438.422 536.298 -510.872 612.669 -555.855C749.861 -636.662 880.005 -768.278 1069.96 -744.579C1249.02 -722.241 1334.33 -570.451 1405.83 -456.901C1469.24 -356.207 1486.91 -246.201 1447.08 -145.727Z" stroke="white" stroke-opacity="0.15" stroke-width="2"/>
<path fill-rule="evenodd" clip-rule="evenodd" d="M1479.75 310.752C1444.31 400.172 1321.09 450.377 1232.48 519.32C1141.57 590.048 1099.72 737.108 954.713 719.244C787.585 698.654 810.986 484.238 648.368 447.361C441.575 400.466 191.237 620.599 40.5051 511.927C-94.4506 414.63 197.888 298.424 301.524 197.301C353.19 146.888 435.589 120.112 491.51 71.8583C553.861 18.057 568.974 -54.3935 645.344 -99.3762C782.537 -180.183 912.681 -311.799 1102.64 -288.101C1281.69 -265.762 1367 -113.972 1438.51 -0.422817C1501.92 100.271 1519.58 210.278 1479.75 310.752Z" stroke="white" stroke-opacity="0.15" stroke-width="2"/>
<path fill-rule="evenodd" clip-rule="evenodd" d="M1382.21 480.85C1346.76 570.27 1223.55 620.476 1134.94 689.418C1044.03 760.146 1002.18 907.206 857.17 889.342C690.042 868.753 713.443 654.336 550.825 617.459C344.032 570.565 93.6944 790.697 -57.0379 682.025C-191.994 584.728 100.345 468.522 203.981 367.4C255.647 316.986 338.046 290.21 393.968 241.956C456.318 188.155 471.431 115.705 547.801 70.722C684.994 -10.085 815.138 -141.701 1005.1 -118.003C1184.15 -95.6642 1269.46 56.1258 1340.97 169.675C1404.38 270.369 1422.04 380.376 1382.21 480.85Z" stroke="white" stroke-opacity="0.15" stroke-width="2"/>
</svg>
