<svg width="62" height="50" viewBox="0 0 62 50" fill="none" xmlns="http://www.w3.org/2000/svg">
<path d="M50.5984 25C50.5984 26.5464 49.3448 27.8 47.7984 27.8C46.252 27.8 44.9984 26.5464 44.9984 25C44.9984 23.4536 46.252 22.2 47.7984 22.2C49.3448 22.2 50.5984 23.4536 50.5984 25Z" fill="white"/>
<path fill-rule="evenodd" clip-rule="evenodd" d="M25.2405 0.500001H33.9564C39.1021 0.499957 43.1779 0.499921 46.3677 0.928778C49.6505 1.37014 52.3075 2.30006 54.403 4.39548C56.9912 6.98376 57.816 10.4502 58.1155 14.9482C59.7318 15.6595 60.9523 17.1636 61.0868 19.069C61.0987 19.2376 61.0986 19.4192 61.0985 19.5876C61.0984 19.603 61.0984 19.6182 61.0984 19.6333V30.3667C61.0984 30.3818 61.0984 30.397 61.0985 30.4124C61.0986 30.5808 61.0987 30.7624 61.0868 30.931C60.9523 32.8364 59.7318 34.3405 58.1155 35.0518C57.8161 39.5499 56.9912 43.0162 54.403 45.6045C52.3075 47.6999 49.6505 48.6299 46.3677 49.0712C43.1779 49.5001 39.1021 49.5 33.9564 49.5H25.2405C20.0948 49.5 16.019 49.5001 12.8292 49.0712C9.54639 48.6299 6.88934 47.6999 4.79392 45.6045C2.6985 43.5091 1.76857 40.8521 1.32722 37.5693C0.898359 34.3795 0.898394 30.3037 0.898438 25.158V24.842C0.898394 19.6963 0.898359 15.6205 1.32722 12.4307C1.76857 9.14796 2.6985 6.4909 4.79392 4.39548C6.88933 2.30007 9.54639 1.37014 12.8292 0.928779C16.019 0.499921 20.0947 0.499957 25.2405 0.500001ZM53.8686 35.5H48.4446C42.438 35.5 37.2984 30.9428 37.2984 25C37.2984 19.0572 42.438 14.5 48.4446 14.5H53.8686C53.5499 10.7439 52.829 8.76122 51.4331 7.36533C50.2481 6.18034 48.6251 5.47007 45.8081 5.09133C42.9306 4.70446 39.1375 4.7 33.7984 4.7H25.3984C20.0593 4.7 16.2663 4.70446 13.3888 5.09133C10.5718 5.47007 8.94875 6.18034 7.76377 7.36533C6.57878 8.55032 5.86851 10.1733 5.48976 12.9904C5.1029 15.8678 5.09844 19.6609 5.09844 25C5.09844 30.3391 5.1029 34.1322 5.48976 37.0096C5.86851 39.8267 6.57878 41.4497 7.76377 42.6347C8.94876 43.8197 10.5718 44.5299 13.3888 44.9087C16.2663 45.2955 20.0593 45.3 25.3984 45.3H33.7984C39.1375 45.3 42.9306 45.2955 45.8081 44.9087C48.6251 44.5299 50.2481 43.8197 51.4331 42.6347C52.829 41.2388 53.5499 39.2561 53.8686 35.5ZM12.0984 13.8C12.0984 12.6402 13.0386 11.7 14.1984 11.7H25.3984C26.5582 11.7 27.4984 12.6402 27.4984 13.8C27.4984 14.9598 26.5582 15.9 25.3984 15.9H14.1984C13.0386 15.9 12.0984 14.9598 12.0984 13.8ZM55.9843 18.7006C55.9274 18.7 55.8528 18.7 55.7318 18.7H48.4446C44.4591 18.7 41.4984 21.6645 41.4984 25C41.4984 28.3356 44.4591 31.3 48.4446 31.3H55.7318C55.8528 31.3 55.9274 31.3 55.9843 31.2994C56.0192 31.299 56.0377 31.2985 56.0463 31.2982L56.0527 31.2979C56.6298 31.2628 56.8781 30.8732 56.8969 30.6389C56.8969 30.6389 56.8975 30.6213 56.8978 30.596C56.8984 30.5463 56.8984 30.4801 56.8984 30.3667V19.6333C56.8984 19.5199 56.8984 19.4537 56.8978 19.404C56.8975 19.3787 56.8969 19.3611 56.8969 19.3611C56.8781 19.1268 56.6298 18.7372 56.0527 18.7021C56.0527 18.7021 56.0388 18.7012 55.9843 18.7006Z" fill="white"/>
</svg>
